<?xml version="1.0" encoding="UTF-8"?>
<svg id="Layer_1" data-name="Layer 1" xmlns="http://www.w3.org/2000/svg" viewBox="0 0 506.44 96">
  <defs>
    <style>
      .cls-1 {
        fill: #fff;
      }

      .cls-2 {
        fill: #26d266;
      }

      .cls-3 {
        fill: #24d366;
      }
    </style>
  </defs>
  <rect class="cls-3" width="506.44" height="96" rx="23.66" ry="23.66"/>
  <g>
    <path class="cls-1" d="M113.85,44.67c-.07-.26-.16-.81-.49-1.43-.49-1.01-1.76-2.57-4.52-2.57-5.92,0-6.02,6.89-6.02,7.77,0,.65-.03,4.84,2.73,6.83,.49,.36,1.59,1.01,3.22,1.01,1.46,0,2.47-.52,2.93-.84,1.92-1.27,2.18-3.8,2.24-4.36l5.01,.03c-.06,1.14-.29,3.35-2.05,5.69-2.02,2.7-4.88,3.74-8.19,3.74-1.17,0-4.23-.1-6.86-2.31-3.93-3.25-4.1-8.42-4.1-9.85,0-1.24,.13-4.23,2.05-7.19,2.93-4.49,7.22-4.78,9.14-4.78,1.17,0,4.06,.1,6.6,2.21,.72,.58,1.43,1.37,1.92,2.11,.68,1.07,1.01,2.11,1.14,2.57,.07,.29,.13,.71,.2,1.37h-4.94Z"/>
    <path class="cls-1" d="M135.04,44.8c2.02,1.76,2.8,4.23,2.8,6.8,0,1.07-.07,4-2.31,6.37-.98,1.01-2.86,2.47-6.21,2.47-.55,0-2.02-.03-3.48-.62-3.48-1.37-5.1-4.62-5.1-8.23,0-1.79,.36-2.99,.65-3.64,.71-1.82,2.8-5.07,7.87-5.14,1.04,0,3.58,.07,5.79,1.98Zm-9.72,6.8c0,2.7,.85,4.06,1.92,4.81,.85,.55,1.69,.58,2.08,.58,.33,0,1.2-.07,2.05-.62,1.5-1.04,1.85-3.12,1.85-4.84s-.33-3.45-1.76-4.52c-.88-.65-1.82-.72-2.21-.72-1.89,0-3.93,1.37-3.93,5.3Z"/>
    <path class="cls-1" d="M144.89,45.62c.42-.68,.75-1.04,1.4-1.53,.68-.49,1.98-1.27,4.06-1.27,.98,0,4.13,.23,5.2,3.38,.36,1.07,.36,2.15,.39,3.25v10.5h-4.52v-9.59c0-1.11,.03-2.44-.98-3.22-.33-.23-.88-.55-1.79-.55-1.76,0-2.6,.91-2.99,1.5-.65,1.01-.62,2.08-.65,3.25v8.62h-4.49v-16.65h4.36v2.31Z"/>
    <path class="cls-1" d="M168.2,46.43h-3.22v7.84c0,.42-.03,.85,.03,1.27,.16,.68,.58,1.07,1.85,1.07,.49,0,1.01-.03,1.5-.06l-.03,3.48c-.94,.1-1.92,.13-2.89,.13-2.8,0-4-.78-4.58-2.08-.42-.94-.46-1.92-.46-2.89v-8.75h-2.7v-3.12h2.7v-5.04h4.58v5.04h3.22v3.12Z"/>
    <path class="cls-1" d="M175.55,40.87h-4.55v-3.87h4.55v3.87Zm0,19.09h-4.55v-16.65h4.55v16.65Z"/>
    <path class="cls-1" d="M183.48,45.62c.42-.68,.75-1.04,1.4-1.53,.68-.49,1.98-1.27,4.06-1.27,.98,0,4.13,.23,5.2,3.38,.36,1.07,.36,2.15,.39,3.25v10.5h-4.52v-9.59c0-1.11,.03-2.44-.98-3.22-.33-.23-.88-.55-1.79-.55-1.76,0-2.6,.91-2.99,1.5-.65,1.01-.62,2.08-.65,3.25v8.62h-4.49v-16.65h4.36v2.31Z"/>
    <path class="cls-1" d="M213.43,59.96h-4.36v-2.34c-.46,.62-.68,.91-.98,1.17-.68,.65-2.05,1.66-4.36,1.66-.91,0-4.19-.23-5.33-3.38-.36-1.04-.39-2.11-.39-3.22v-10.54h4.52v9.2c.03,1.27-.03,1.72,.16,2.37,.23,.68,.88,1.72,2.67,1.72,.36,0,1.33-.03,2.18-.71,1.4-1.11,1.37-2.73,1.4-4.33v-8.26h4.49v16.65Z"/>
    <path class="cls-1" d="M220.8,52.8c.03,.26,.03,.81,.2,1.4,.23,.98,1.01,2.96,3.8,2.96,.59,0,1.82-.1,2.73-1.4,.13-.2,.29-.46,.52-.98h4.36c-.07,.23-.2,.78-.49,1.37-.81,1.69-2.34,3.12-4.13,3.77-1.3,.49-2.7,.52-3.12,.52-.62,0-2.08-.03-3.61-.65-3.28-1.37-4.91-4.68-4.88-8.1,0-4.88,3.28-8.88,8.36-8.88,.81,0,2.83,.1,4.71,1.46,3.64,2.67,3.45,7.35,3.45,8.52h-11.9Zm7.25-3.02c-.03-.26-.1-1.01-.42-1.72-.58-1.27-1.79-2.02-3.12-2.02-1.4,0-2.63,.78-3.25,2.05-.2,.39-.33,.81-.42,1.69h7.22Z"/>
    <path class="cls-1" d="M263.53,59.96h-4.68l-2.99-12.06-2.86,12.06h-4.75l-5.3-16.65h4.81l3.12,12.03,2.8-12.03h4.46l2.86,12.03,3.12-12.03h4.71l-5.3,16.65Z"/>
    <path class="cls-1" d="M275.1,40.87h-4.55v-3.87h4.55v3.87Zm0,19.09h-4.55v-16.65h4.55v16.65Z"/>
    <path class="cls-1" d="M287.39,46.43h-3.22v7.84c0,.42-.03,.85,.03,1.27,.16,.68,.58,1.07,1.85,1.07,.49,0,1.01-.03,1.5-.06l-.03,3.48c-.94,.1-1.92,.13-2.89,.13-2.8,0-4-.78-4.58-2.08-.42-.94-.46-1.92-.46-2.89v-8.75h-2.7v-3.12h2.7v-5.04h4.58v5.04h3.22v3.12Z"/>
    <path class="cls-1" d="M294.7,45.52c.13-.2,.29-.46,.62-.81,.65-.68,2.08-1.89,4.52-1.89,.98,0,4.49,.2,5.46,3.67,.29,.98,.26,1.85,.29,2.86v10.6h-4.52v-9.85c0-.23,0-.46-.03-.71,0-.42,0-1.66-1.14-2.37-.68-.39-1.46-.42-1.72-.42-1.76,0-2.57,1.04-2.93,1.59-.65,1.11-.55,2.37-.59,3.58v8.19h-4.49v-22.96h4.49l.03,8.52Z"/>
    <path class="cls-1" d="M340.68,59.96h-5.04l-3.93-16.84-3.87,16.84h-5.1l-6.11-22.96h5.04l3.71,16.97,4.03-16.97h4.75l3.97,16.97,3.77-16.97h5.01l-6.21,22.96Z"/>
    <path class="cls-1" d="M352.96,45.52c.13-.2,.29-.46,.62-.81,.65-.68,2.08-1.89,4.52-1.89,.97,0,4.49,.2,5.46,3.67,.29,.98,.26,1.85,.29,2.86v10.6h-4.52v-9.85c0-.23,0-.46-.03-.71,0-.42,0-1.66-1.14-2.37-.68-.39-1.46-.42-1.72-.42-1.76,0-2.57,1.04-2.93,1.59-.65,1.11-.55,2.37-.59,3.58v8.19h-4.49v-22.96h4.49l.03,8.52Z"/>
    <path class="cls-1" d="M378.06,59.96c-.26-.85-.29-1.14-.29-1.59-.91,.88-2.54,2.08-5.5,2.08-4.75,0-5.79-3.06-5.79-5.07,0-.91,.23-3.09,2.6-4.23,1.53-.72,3.61-.88,5.24-1.11,.68-.1,2.54-.33,3.09-.84,.33-.29,.36-1.01,.36-1.04-.03-1.85-1.43-2.28-2.99-2.28-.85,0-1.33,.13-1.69,.26-1.4,.52-1.5,1.85-1.56,2.31l-4.32-.03c.1-1.24,.42-2.28,1.24-3.25,1.11-1.33,2.89-2.34,6.5-2.34,.42,0,2.44,.03,4,.59,.65,.23,1.3,.58,1.82,1.04,.62,.52,.94,1.07,1.07,1.33,.26,.62,.39,1.33,.39,2.7,0,1.14-.07,2.31-.07,3.45-.03,1.2-.06,2.37-.06,3.58,0,2.37,.13,3.38,.62,4.46h-4.65Zm-.36-8.1c-.16,.1-.33,.2-.49,.26-.72,.33-1.5,.39-3.06,.65-.03,0-1.14,.2-1.69,.42-.85,.39-1.3,1.11-1.3,2.02s.46,2.24,2.54,2.24c1.66,0,2.6-.71,3.06-1.17,.26-.26,.55-.65,.71-.94,.23-.55,.23-1.59,.23-1.63v-1.85Z"/>
    <path class="cls-1" d="M394.38,46.43h-3.22v7.84c0,.42-.03,.85,.03,1.27,.16,.68,.58,1.07,1.85,1.07,.49,0,1.01-.03,1.5-.06l-.03,3.48c-.94,.1-1.92,.13-2.89,.13-2.8,0-4-.78-4.58-2.08-.42-.94-.46-1.92-.46-2.89v-8.75h-2.7v-3.12h2.7v-5.04h4.58v5.04h3.22v3.12Z"/>
    <path class="cls-1" d="M406.74,48.15c-.07-.46-.13-.81-.39-1.24-.42-.62-1.2-1.04-2.7-1.04,0,0-2.63-.13-2.63,1.66,0,.33,.13,.94,.85,1.27,.39,.2,1.24,.42,2.24,.65,3.25,.65,4.91,1.04,6.15,2.21,.94,.85,1.33,1.89,1.33,3.12,0,1.14-.33,2.21-1.01,3.09-1.04,1.4-2.96,2.57-6.63,2.57-.68,0-4.94,.1-6.89-2.83-.81-1.24-.88-2.57-.91-3.06h4.36c.13,.84,.29,1.24,.52,1.59,.42,.59,1.4,1.17,3.02,1.17,.26,0,1.24,0,2.02-.46,.85-.46,1.04-1.2,1.04-1.63,0-.13-.03-.36-.16-.65-.26-.55-.78-.81-1.33-.98-1.92-.62-3.8-.81-5.69-1.43-.88-.29-3.41-1.2-3.41-4.23,.03-2.05,1.07-3.12,1.66-3.58,2.05-1.63,4.88-1.56,5.5-1.56,.39,0,4.36-.1,6.24,2.15,.49,.62,1.01,1.5,1.14,3.19h-4.29Z"/>
    <path class="cls-1" d="M434.83,59.96h-5.27l-1.82-5.14h-8.52l-1.89,5.14h-5.17l8.75-22.96h5.2l8.71,22.96Zm-11.32-17.82l-3.09,9.04h6.08l-2.99-9.04Z"/>
    <path class="cls-1" d="M440.81,45.39c.46-.59,.62-.75,.91-1.01,.65-.62,1.95-1.56,4.23-1.56,.49,0,1.66,.03,2.93,.62,1.98,.88,4.46,3.28,4.46,8.29,0,.98,0,4.29-2.31,6.7-.75,.75-2.24,2.02-4.91,2.02-2.41,0-3.84-1.07-4.49-1.76-.33-.33-.49-.62-.58-.78v7.93h-4.55v-22.53h4.33v2.08Zm.06,6.31c0,.42-.06,3.06,1.69,4.39,.91,.65,1.89,.71,2.28,.71,1.69,0,2.57-.94,2.93-1.46,.72-.98,.94-2.44,.94-3.64,0-.39,0-2.31-.91-3.64-.39-.55-1.3-1.56-3.02-1.53-1.92,0-3.9,1.27-3.9,5.17Z"/>
    <path class="cls-1" d="M460.44,45.39c.46-.59,.62-.75,.91-1.01,.65-.62,1.95-1.56,4.23-1.56,.49,0,1.66,.03,2.93,.62,1.98,.88,4.46,3.28,4.46,8.29,0,.98,0,4.29-2.31,6.7-.75,.75-2.24,2.02-4.91,2.02-2.41,0-3.84-1.07-4.49-1.76-.33-.33-.49-.62-.58-.78v7.93h-4.55v-22.53h4.33v2.08Zm.06,6.31c0,.42-.06,3.06,1.69,4.39,.91,.65,1.89,.71,2.28,.71,1.69,0,2.57-.94,2.93-1.46,.72-.98,.94-2.44,.94-3.64,0-.39,0-2.31-.91-3.64-.39-.55-1.3-1.56-3.02-1.53-1.92,0-3.9,1.27-3.9,5.17Z"/>
  </g>
  <g id="_7ES0pG.tif" data-name="7ES0pG.tif">
    <g>
      <path class="cls-1" d="M32.88,70.51c.72-2.63,1.42-5.19,2.11-7.74,.31-1.13,.63-2.25,.91-3.39,.06-.23,.03-.53-.08-.74-5.97-10.92-1.99-24.51,8.94-30.43,4.19-2.27,8.69-3.19,13.4-2.48,9.26,1.39,15.64,6.58,18.42,15.48,2.8,8.97,.42,16.88-6.46,23.3-3.35,3.12-7.41,4.88-11.95,5.46-4.55,.58-8.9-.19-12.99-2.28-.36-.19-.68-.21-1.06-.11-3.6,.96-7.21,1.91-10.81,2.85-.12,.03-.24,.04-.44,.08Zm5.35-5.27c2.24-.59,4.38-1.14,6.52-1.72,.36-.1,.64-.05,.96,.15,4.13,2.47,8.57,3.29,13.29,2.35,10-2,16.47-11.67,14.58-21.69-1.87-9.88-11.4-16.48-21.34-14.76-12.62,2.17-19.31,16.22-12.98,27.36,.65,1.14,.78,2.08,.38,3.29-.54,1.62-.93,3.29-1.4,5.02Z"/>
      <path class="cls-2" d="M38.23,65.24c.47-1.73,.85-3.41,1.4-5.02,.4-1.2,.27-2.14-.38-3.29-6.33-11.14,.36-25.19,12.98-27.36,9.95-1.71,19.48,4.88,21.34,14.76,1.89,10.02-4.58,19.69-14.58,21.69-4.71,.94-9.16,.12-13.29-2.35-.32-.19-.6-.24-.96-.15-2.14,.58-4.28,1.13-6.52,1.72Zm9.72-27.69c-.95-.19-1.69,.31-2.34,1.07-1.63,1.91-1.92,4.07-1.21,6.41,.52,1.7,1.53,3.13,2.57,4.54,3.09,4.15,6.94,7.24,12,8.65,2.01,.56,3.9,.45,5.71-.69,1.51-.95,2.02-2.35,1.97-4.03,0-.21-.17-.5-.35-.59-1.56-.78-3.14-1.53-4.72-2.27-.46-.21-.82-.08-1.14,.34-.53,.71-1.11,1.39-1.67,2.08-.3,.38-.66,.47-1.12,.29-3.33-1.33-5.88-3.55-7.7-6.63-.23-.39-.2-.71,.08-1.07,.49-.61,.97-1.23,1.39-1.88,.15-.23,.25-.63,.16-.87-.62-1.6-1.3-3.18-1.97-4.75-.19-.44-.55-.66-1.05-.62-.17,.01-.34,0-.61,0Z"/>
      <path class="cls-1" d="M47.94,37.55c.27,0,.44,.01,.61,0,.5-.04,.86,.18,1.05,.62,.68,1.58,1.35,3.15,1.97,4.75,.09,.24,0,.64-.16,.87-.42,.65-.91,1.27-1.39,1.88-.28,.36-.31,.68-.08,1.07,1.82,3.08,4.37,5.3,7.7,6.63,.46,.18,.82,.09,1.12-.29,.56-.7,1.14-1.37,1.67-2.08,.31-.42,.68-.56,1.14-.34,1.58,.74,3.16,1.49,4.72,2.27,.18,.09,.35,.39,.35,.59,.05,1.68-.46,3.07-1.97,4.03-1.81,1.15-3.7,1.25-5.71,.69-5.07-1.41-8.91-4.51-12-8.65-1.05-1.41-2.06-2.83-2.57-4.54-.71-2.34-.42-4.49,1.21-6.41,.65-.77,1.39-1.26,2.34-1.07Z"/>
    </g>
  </g>
</svg>